<?xml version="1.0" ?>
<!DOCTYPE svg  PUBLIC '-//W3C//DTD SVG 1.1//EN'  'http://www.w3.org/Graphics/SVG/1.1/DTD/svg11.dtd'>
<!-- Uploaded to: SVG Repo, www.svgrepo.com, Generator: SVG Repo Mixer Tools -->
<svg fill="#000000" width="800px" height="800px" viewBox="0 0 100 100" version="1.1" xml:space="preserve" xmlns="http://www.w3.org/2000/svg" xmlns:xlink="http://www.w3.org/1999/xlink">
<g id="Grid"/>
<g id="_x31_"/>
<g id="_x32_"/>
<g id="_x33_"/>
<g id="_x34_"/>
<g id="_x35_"/>
<g id="_x36_"/>
<g id="_x37_"/>
<g id="_x38_"/>
<g id="_x39_">
<path d="M50,89.2c-21.6,0-39.2-17.6-39.2-39.2S28.4,10.8,50,10.8S89.2,28.4,89.2,50S71.6,89.2,50,89.2z M50,13.8   c-19.9,0-36.2,16.2-36.2,36.2S30.1,86.2,50,86.2S86.2,69.9,86.2,50S69.9,13.8,50,13.8z M75.9,71.2c4.9-6,7.6-13.5,7.6-21.2   c0-0.8-0.7-1.5-1.5-1.5s-1.5,0.7-1.5,1.5c0,7-2.5,13.9-6.9,19.3c-0.5,0.6-0.4,1.6,0.2,2.1c0.3,0.2,0.6,0.3,1,0.3   C75.2,71.8,75.6,71.6,75.9,71.2z M19.4,50c0-7,2.5-13.9,6.9-19.3c0.5-0.6,0.4-1.6-0.2-2.1c-0.6-0.5-1.6-0.4-2.1,0.2   c-4.9,6-7.6,13.5-7.6,21.2c0,0.8,0.7,1.5,1.5,1.5S19.4,50.8,19.4,50z M25.9,57.1c-0.2,0-0.4,0-0.6-0.1c-0.4-0.2-0.7-0.6-0.8-1   C24,54,23.7,52,23.7,50c0-11.8,8-22.2,19.3-25.3c0.5-0.1,0.9,0,1.3,0.3c0.4,0.3,0.6,0.7,0.6,1.2v20.7c0,0.6-0.3,1.1-0.8,1.3   l-17.6,8.7C26.3,57,26.1,57.1,25.9,57.1z M42,28.2c-9.1,3.3-15.2,12-15.2,21.8c0,1.1,0.1,2.3,0.2,3.4l15-7.4V28.2z M50.7,58.2   c-0.2,0-0.4,0-0.6-0.1c0,0,0,0,0,0c-4.4,0-8-3.6-8-8c0-1.6,0.5-3.2,1.4-4.6c1.5-2.2,4-3.5,6.6-3.5c2,0,3.9,0.8,5.4,2.1   c1.7,1.5,2.6,3.7,2.6,5.9c0,3.8-2.7,7.1-6.4,7.9L51.3,58C51.1,58.1,50.9,58.2,50.7,58.2z M50,45c-1.7,0-3.2,0.8-4.1,2.2   C45.3,48,45,49,45,50c0,2.8,2.3,5,5,5l0.1,0c0.2,0,0.3,0,0.5,0c0.1,0,0.2-0.1,0.3-0.1c2.4-0.4,4.2-2.5,4.2-5c0-1.4-0.6-2.7-1.6-3.7   C52.5,45.4,51.3,45,50,45z M50,76.3c-7.6,0-14.8-3.3-19.8-9c-0.3-0.4-0.4-0.8-0.3-1.3c0.1-0.5,0.4-0.8,0.8-1.1L50,55.3   c0.4-0.2,0.9-0.2,1.3,0l18.4,9.1c0.4,0.2,0.7,0.6,0.8,1c0.1,0.4,0,0.9-0.3,1.3C65.2,72.8,57.8,76.3,50,76.3z M33.8,66.7   c4.3,4.2,10.1,6.6,16.2,6.6c6.3,0,12.3-2.5,16.6-7l-16-7.9L33.8,66.7z M74.3,56.5c-0.2,0-0.5-0.1-0.7-0.2l-17.7-8.8   c-0.5-0.3-0.8-0.8-0.8-1.3V26.1c0-0.5,0.2-0.9,0.6-1.2c0.4-0.3,0.9-0.4,1.3-0.3C68.3,27.8,76.3,38.2,76.3,50c0,1.8-0.2,3.6-0.5,5.3   c-0.1,0.5-0.4,0.8-0.8,1C74.7,56.4,74.5,56.5,74.3,56.5z M58,45.3l15.1,7.5c0.1-0.9,0.2-1.8,0.2-2.8c0-9.8-6.2-18.5-15.2-21.8V45.3   z M50,58c-4.4,0-8-3.6-8-8c0-1.6,0.5-3.2,1.4-4.6c1.5-2.2,4-3.5,6.6-3.5c2,0,3.9,0.8,5.4,2.1c1.7,1.5,2.6,3.7,2.6,5.9   c0,3.9-2.8,7.2-6.7,7.9C51.1,58,50.8,58,50.5,58C50.3,58,50.2,58,50,58z M50,45c-1.7,0-3.2,0.8-4.1,2.2C45.3,48,45,49,45,50   c0,2.8,2.3,5,5,5l0.1,0c0.2,0,0.4,0,0.7-0.1c2.5-0.4,4.2-2.5,4.2-5c0-1.4-0.6-2.7-1.6-3.7C52.5,45.4,51.3,45,50,45z M56.5,51.5   c-0.8,0-1.5-0.7-1.5-1.5c0-2.8-2.3-5-5-5s-5,2.3-5,5c0,0.8-0.7,1.5-1.5,1.5S42,50.8,42,50V26.1c0-0.7,0.4-1.3,1.1-1.4   c4.5-1.2,9.4-1.2,13.9,0c0.6,0.2,1.1,0.8,1.1,1.4V50C58,50.8,57.4,51.5,56.5,51.5z M50,42c1.9,0,3.7,0.7,5,1.8V27.3   c-3.3-0.7-6.8-0.7-10.1,0v16.5C46.3,42.6,48.1,42,50,42z M31.3,67.8c-0.4,0-0.8-0.2-1.1-0.5c-2.8-3.2-4.8-7.2-5.8-11.3   c-0.2-0.7,0.2-1.4,0.8-1.7l17.6-8.7c0.5-0.2,1-0.2,1.5,0.1c0.4,0.3,0.7,0.8,0.7,1.3V50c0,2.8,2.3,5,5,5l0.1,0   c0.3-0.1,0.6,0,0.9,0.1l0.3,0.2c0.5,0.3,0.8,0.8,0.8,1.3c0,0.6-0.3,1.1-0.8,1.3L32,67.6C31.8,67.7,31.5,67.8,31.3,67.8z M27.6,56.4   c0.8,2.9,2.2,5.6,4.1,8l14.6-7.2c-2.6-1.3-4.3-4-4.3-7.1v-0.7L27.6,56.4z M69.1,67.3c-0.2,0-0.5-0.1-0.7-0.2L50,58   c-0.5-0.3-0.8-0.8-0.8-1.3s0.3-1.1,0.8-1.3l0.5-0.2c0.1-0.1,0.3-0.1,0.4-0.1c2.4-0.4,4.2-2.5,4.2-5v-3.8c0-0.5,0.3-1,0.7-1.3   c0.4-0.3,1-0.3,1.5-0.1l17.7,8.8c0.6,0.3,0.9,1,0.8,1.6c-0.9,4.2-2.8,8.1-5.5,11.5C69.9,67.1,69.5,67.3,69.1,67.3z M54.3,56.8   l14.4,7.1c1.8-2.4,3.1-5.2,3.9-8.1L58,48.6V50C58,52.8,56.6,55.4,54.3,56.8z"/>
</g>
<g id="_x31_0"/>
<g id="_x31_1"/>
<g id="_x31_2"/>
<g id="_x31_3"/>
<g id="_x31_4"/>
<g id="_x31_5"/>
<g id="_x31_6"/>
<g id="_x31_7"/>
<g id="_x31_8"/>
<g id="_x31_9"/>
<g id="_x32_0"/>
<g id="_x32_1"/>
<g id="_x32_2"/>
<g id="_x32_3"/>
<g id="_x32_4"/>
<g id="_x32_5"/>
</svg>