<?xml version="1.0" ?>
<!DOCTYPE svg  PUBLIC '-//W3C//DTD SVG 1.1//EN'  'http://www.w3.org/Graphics/SVG/1.1/DTD/svg11.dtd'>
<!-- Uploaded to: SVG Repo, www.svgrepo.com, Generator: SVG Repo Mixer Tools -->
<svg fill="#000000" width="800px" height="800px" viewBox="0 0 100 100" version="1.1" xml:space="preserve" xmlns="http://www.w3.org/2000/svg" xmlns:xlink="http://www.w3.org/1999/xlink">
<g id="Grid"/>
<g id="_x31_"/>
<g id="_x32_"/>
<g id="_x33_"/>
<g id="_x34_"/>
<g id="_x35_"/>
<g id="_x36_">
<path d="M89,87.6H11c-0.8,0-1.5-0.7-1.5-1.5V74.4c0-0.8,0.7-1.5,1.5-1.5h78c0.8,0,1.5,0.7,1.5,1.5v11.7C90.5,87,89.8,87.6,89,87.6z    M12.5,84.6h75v-8.7h-75V84.6z M89,24.8H56.8c-0.8,0-1.5-0.7-1.5-1.5v-9.4c0-0.8,0.7-1.5,1.5-1.5H89c0.8,0,1.5,0.7,1.5,1.5v9.4   C90.5,24.1,89.8,24.8,89,24.8z M58.3,21.8h29.2v-6.4H58.3V21.8z M86.7,33.8H59.1c-0.8,0-1.5-0.7-1.5-1.5v-9c0-0.8,0.7-1.5,1.5-1.5   h27.6c0.8,0,1.5,0.7,1.5,1.5v9C88.2,33.1,87.6,33.8,86.7,33.8z M60.6,30.8h24.6v-6H60.6V30.8z M41.8,75.9H20.6   c-0.8,0-1.5-0.7-1.5-1.5v-22c0-0.8,0.7-1.5,1.5-1.5h21.3c0.8,0,1.5,0.7,1.5,1.5v22C43.3,75.3,42.7,75.9,41.8,75.9z M22.1,72.9h18.3   v-19H22.1V72.9z M47.8,53.9H14.6c-0.8,0-1.5-0.7-1.5-1.5V41.6c0-0.8,0.7-1.5,1.5-1.5h33.2c0.8,0,1.5,0.7,1.5,1.5v10.8   C49.3,53.3,48.6,53.9,47.8,53.9z M16.1,50.9h30.2v-7.8H16.1V50.9z"/>
</g>
<g id="_x37_"/>
<g id="_x38_"/>
<g id="_x39_"/>
<g id="_x31_0"/>
<g id="_x31_1"/>
<g id="_x31_2"/>
<g id="_x31_3"/>
<g id="_x31_4"/>
<g id="_x31_5"/>
<g id="_x31_6"/>
<g id="_x31_7"/>
<g id="_x31_8"/>
<g id="_x31_9"/>
<g id="_x32_0"/>
<g id="_x32_1"/>
<g id="_x32_2"/>
<g id="_x32_3"/>
<g id="_x32_4"/>
<g id="_x32_5"/>
</svg>